<?xml version="1.0" encoding="UTF-8"?><svg id="a" xmlns="http://www.w3.org/2000/svg" xmlns:xlink="http://www.w3.org/1999/xlink" viewBox="0 0 984.5148 787"><defs><linearGradient id="b" x1="236.4848" y1="345.5" x2="984.5148" y2="345.5" gradientUnits="userSpaceOnUse"><stop offset="0" stop-color="#3a130b"/><stop offset="1" stop-color="#696125"/></linearGradient><linearGradient id="c" x1="252.3151" y1="348.3785" x2="958.7063" y2="348.3785" gradientUnits="userSpaceOnUse"><stop offset="0" stop-color="#ff3e00"/><stop offset="1" stop-color="#00a700"/></linearGradient><linearGradient id="d" x1="236.4848" y1="345.5" x2="984.5148" y2="345.5" gradientUnits="userSpaceOnUse"><stop offset="0" stop-color="#209a00"/><stop offset="1" stop-color="#ff3e00"/></linearGradient><linearGradient id="e" x1="115.457" y1="494.4536" x2="357.7903" y2="143.9985" gradientTransform="translate(6.1637 79.2594)" gradientUnits="userSpaceOnUse"><stop offset=".296" stop-color="#0c8726"/><stop offset="1" stop-color="#66cc25"/></linearGradient><linearGradient id="f" x1="347.4543" y1="425.0279" x2="404.4519" y2="315.4992" gradientTransform="translate(6.1637 79.2594)" gradientUnits="userSpaceOnUse"><stop offset="0" stop-color="#333f0c"/><stop offset=".6533" stop-color="#6d4f2e"/><stop offset="1" stop-color="#42210b"/></linearGradient><linearGradient id="g" x1="568.8918" y1="433.7531" x2="763.7891" y2="204.0703" gradientTransform="translate(6.1637 79.2594)" gradientUnits="userSpaceOnUse"><stop offset=".296" stop-color="#0c8726"/><stop offset="1" stop-color="#66cc25"/></linearGradient></defs><g><path d="m984.5148,383.96c0,17.22-13.95,31.17-31.17,31.17-6.02,0-11.65-1.71-16.42-4.67-9.52,23.17-24.36,45.81-42.84,73.81,8.16,5.63,13.51,15.04,13.51,25.69,0,17.21-13.96,31.17-31.17,31.17-12.17,0-22.71-6.97-27.84-17.14-22.2599,12.32-48.0099,28.02-73,45.14,2.97,4.77,4.6801,10.4,4.6801,16.43,0,17.21-13.95,31.17-31.17,31.17-9.23,0-17.53-4.02-23.23-10.4-10.91,9.03-20.9,18.08-29.46,26.91,8.93,5.48,14.89,15.34,14.89,26.59,0,17.2201-13.95,31.17-31.16,31.17-17.22,0-31.17-13.95-31.17-31.17,0-13.34,8.38-24.72,20.16-29.17-9.15-25.35-18.91-45.18-30.05-61.43-3.69,1.55-7.7401,2.4-12,2.4-17.21,0-31.16-13.95-31.16-31.16,0-4.55.98-8.87,2.73-12.77-21.95-16.06-48.66-28.73-82.6299-44.2401-4.9901,10.57-15.7401,17.88-28.2,17.88-17.21,0-31.16-13.95-31.16-31.17,0-12.14,6.94-22.66,17.08-27.81-14.52-26.35-33.66-61.05-33.66-61.06-11.38.47-24.84-2.53-39.27-7.74-4.02,12.57-15.8,21.68-29.7,21.68-17.21,0-31.17-13.96-31.17-31.17,0-6.46,1.96-12.45,5.32-17.43-20.16-11.67-39.66-24.57-55.92-35.78-5.6,5.43-13.25,8.78-21.68,8.78-17.22,0-31.17-13.96-31.17-31.17,0-15.44,11.23-28.27,25.98-30.74-.38-12.71-.04-24.08,1.06-34.5.06-3.69.19-7.05.4-10.11-14.81-2.41-26.11-15.26-26.11-30.75,0-17.22,13.95-31.17,31.16-31.17,6.63,0,12.77,2.0699,17.82,5.59,9.53-14.79,21.99-29.54,37.61-46.66-3.58-5.07-5.69-11.27-5.69-17.95,0-17.22,13.95-31.17,31.17-31.17,7.73,0,14.8199,2.8199,20.27,7.49,15.45-9.94,32.02-17.73,49.43-23.7,1.56-1.02,3.06-1.97,4.4901-2.85-1.23-3.36-1.91-6.9901-1.91-10.78,0-17.22,13.96-31.17,31.17-31.17,17.03,0,30.88,13.66,31.16,30.63,25.97-2.93,52.82-3.18,79.78-1.58,1.71-15.59,14.92-27.72,30.97-27.72,17.22,0,31.17,13.95,31.17,31.16,0,1.05-.05,2.09-.15,3.12,35.78,5.28,70.67,12.72,102.8,20.29,5.08-10.33,15.71-17.44,27.99-17.44,17.21,0,31.17,13.96,31.17,31.17,0,4.43-.92,8.65-2.59,12.46,38.95,27.04,65.69,44.63,80.81,56.97,5.7-6.39,14-10.41,23.24-10.41,17.21,0,31.17,13.96,31.17,31.17,0,10.77-5.47,20.27-13.77,25.87l20.6801,64.78c2.66-.74,5.45-1.13,8.34-1.13,17.21,0,31.17,13.96,31.17,31.17,0,14.27-9.59,26.3-22.68,30,2.94,15.73,4.25,29.74,4.1,42.63,1.5099-.23,3.07-.35,4.65-.35,17.22,0,31.17,13.96,31.17,31.17Z" fill="url(#b)"/><g><path d="m720.5848,215.52c-9.27-4.5-17.9-8.6-25.92-12.31-32.65-15.13-55.28-23.93-70.68-27.2-24.5-5.2-30.72,3.54-29.86,22.93,1.05,23.27,12.3,61.87,14.41,110.09.09,1.96.16,3.95.22,5.94.23,8.16.17,16.57-.24,25.22l21.76,22.3,94.09,96.42,5.5,5.63,5.03-27.76,12.21-67.37,4.6-25.42.05-.25h-.02c-.47-.01-9.06-.23-21.83-.55-24.07-.59-62.98-1.55-90.24-2.23-17.82-.44-30.67-.76-31.15-.77h-.01c2,10.74,3.48,21.01,4.57,30.84.69,6.17,1.23,12.17,1.65,18,3.77,51.84-1.58,90.37,8.85,120.47,5.45,15.78,15.25,29.25,32.98,41.1,14.71,9.82,34.87,18.53,62.53,26.52,8.41,2.43,17.51,4.8,27.37,7.11-2.16-10.41-4.06-19.96-5.7-28.71-24.73-132.22,10.9-81,105.72-54.23,7.87,2.23,16.16,4.28,24.85,6.05,2.38.48,4.09-2.26,2.62-4.19-5.06-6.66-9.96-13.05-14.7-19.2-45.46-58.85-76.17-94.47-86.16-113.68-7.8-15-2.97-20,17.31-18.26,22.87,1.96,65.4,12.5,131.65,26.96.17.04.35.07.52.1,12.53,2.44,23.98-6.25,25.86-18.07v-.03c.25-1.54.33-3.14.22-4.77v-.05c-.04-.67-.12-1.34-.22-2.02l-.14-.93-6.56-42.03-3.95-25.3c-.86-5.51-6.55-8.85-11.78-6.91-5.23,1.95-12.25,4.55-20.47,7.61-31.74,11.8-81.44,30.28-115.69,43.01-21.46,7.97-36.87,13.7-38.03,14.12-.02.01-.03.02-.04.02-.02.01-.03.01-.03.01v.01c-.01.08-.02.17-.03.25-.91,9.37-1.85,18.09-2.85,26.23-3.41,27.9-7.53,49.08-13.96,66.56-2.96,8.06-6.42,15.34-10.53,22.13-13.71,22.67-34.65,39.92-68.69,62.82-.85.58-1.73,1.08-2.62,1.51-11.85,5.75-26.2-1.02-29.28-13.77-.26-1.04-.44-2.12-.53-3.24-4.08-47.99-2.29-85.49-8.52-117.2-1.2-6.11-2.7-12-4.59-17.71-4.03-12.18-9.87-23.54-18.47-34.4-3.13-3.95-6.62-7.83-10.52-11.65-18.48-18.15-46.19-35.16-88.02-52.71v-.01c-11.7-58.49-25.06-96.34-28.51-117.95-3.15-19.7,1.93-25.92,24-22.01,15.8,2.8,40.31,10.79,76.73,22.74,9.18,3.02,19.13,6.29,29.89,9.79.46-10.19.85-19.65,1.14-28.42,1.14-33.85.95-57.45-.94-73.04-3.39-28.2-12.32-30.19-28.95-19.16-17.61,11.68-43.86,37.94-81.32,63.14-8.28,5.57-17.11,11.08-26.52,16.38l-.01-.01h-.01c-10.72-3.82-20.47-7.38-29.3-10.61-20.96-7.69-36.82-13.61-48.52-17.26-30.32-9.45-32.71-3.64-23.62,26.35,3.93,13.03,10.04,30.62,16.95,53.51,2.45,8.08,5,16.82,7.58,26.25q.01.01.01.02h-.03c-10.9-1.64-20.81-3.36-29.82-5.05-22.5-4.21-39.4-8.21-52.06-10.29-15.1-2.5-24.15-2.25-29.44,3.65-3.81,4.24-5.68,11.39-6.45,22.54-.21,3.06-.34,6.42-.4,10.11-.16,9.26.09,20.57.48,34.28.12,4.64.27,9.56.42,14.76.26,8.89,10.52,13.71,17.52,8.22,3.53-2.77,7.49-5.87,11.72-9.2,18.86-14.77,43.35-33.98,61.71-48.38,14.93-11.7,25.8-20.23,26.32-20.64l.02-.02v.02c-.17,12.44-.57,24.15-1.1,35.12-2.17,44.59-6.56,76.84-6.23,95.68.34,19.28,5.6,24.52,23.21,14.57,17.4-9.82,46.85-34.48,95.52-75.08l.01-.01v.01c-.02,1.41-1.84,110.53-2.78,166.54-.13,7.37-.24,13.82-.33,18.99-.01.7-.02,1.38-.03,2.04-.11,6.92,3.89,13.25,10.19,16.12,5.45,2.48,10.73,4.88,15.84,7.21,33.97,15.51,60.68,28.18,82.63,44.24,15.58,11.39,28.76,24.5,40.43,41.53,11.14,16.25,20.9,36.08,30.05,61.43,2.84,7.85,5.62,16.23,8.36,25.2,4.96-7.26,11.38-14.85,18.92-22.62,8.56-8.83,18.55-17.88,29.46-26.91,15.26-12.66,32.31-25.27,49.72-37.2,24.99-17.12,50.74-32.82,73-45.14,5.6-3.11,10.97-5.99,16.06-8.63,8.89-4.61,16.47-11.41,21.97-19.77,2.55-3.88,5.04-7.65,7.47-11.32,18.48-28,33.32-50.64,42.84-73.81,6.43-15.65,10.44-31.53,11.5-49.46v-.03c.1-1.57.17-3.16.22-4.77v-.05c.03-.99.05-2,.05-3.01.15-12.89-1.16-26.9-4.1-42.63-1.71-9.18-3.98-18.95-6.84-29.43-1.02-3.71-2.26-7.36-3.7-10.92l-6.29-19.69-20.68-64.78-4.77-14.94c-2.78-8.72-14.26-10.64-19.72-3.28-3.57,4.81-7.75,10.44-12.38,16.68-27.18,36.61-69.86,94.12-95.88,129.17-13.1,17.66-21.98,29.63-22.53,30.38-.02.03-.03.04-.03.04,0-.01-.01-.01-.01-.02-3.66-8.92-6.84-17.94-9.56-27.04-6.61-22.04-10.55-44.55-12.25-67.24-.91-12.28-1.18-24.61-.85-36.95.19-7.61.62-15.21,1.26-22.81,2.53-30.57,8.44-60.98,16.68-90.52,2.83-10.18,5.94-20.26,9.29-30.2,1-2.98,4.61-4.13,7.19-2.32,7.76,5.47,15.13,10.62,22.11,15.45,38.95,27.04,65.69,44.63,80.81,56.97,21.81,17.8,19.44,24.68-5.35,33.2-21.23,7.29-58.9,15.79-111.92,33.38-6.46,2.14-13.15,4.42-20.07,6.85-2.8.99-5.64,2-8.52,3.03-9.35,3.36-18.86,8.53-28.45,15.14-26.16,17.99-52.94,46.7-78.89,78.73-1.5,1.85-3,3.71-4.49,5.58-5.76,7.2-11.46,14.54-17.09,21.95-3.96,5.19-7.88,10.41-11.77,15.63-25.51,34.27-49.48,68.65-70.36,95.27-1.04,1.33-2.07,2.64-3.1,3.93-4.19,5.26-10.53,7.3-16.42,6.34-5.01-.81-9.68-3.77-12.44-8.77-1.23-2.23-2.51-4.56-3.84-6.96-14.52-26.35-33.66-61.05-33.66-61.06-11.38.47-24.84-2.53-39.27-7.74-17.72-6.4-36.92-16.14-55.55-26.92-20.16-11.67-39.66-24.57-55.92-35.78-7.55-5.2-14.4-10.04-20.3-14.23-2.57-1.82-4.21-4.68-4.52-7.83-1.08-11.22-1.77-21.52-2.05-31.07-.38-12.71-.04-24.08,1.06-34.5.36-3.42.81-6.74,1.34-9.97,1.3-8.05,3.13-15.54,5.51-22.68,3.93-11.93,9.38-22.87,16.42-33.79,9.53-14.79,21.99-29.54,37.61-46.66,6.97-7.65,14.57-15.77,22.83-24.57,7.31-6.29,14.96-11.96,22.92-17.06,15.45-9.94,32.02-17.73,49.43-23.7,1.65-.57,3.31-1.12,4.97-1.65,7.14-2.3,14.4-4.29,21.78-6.01,12.43-2.91,25.19-5.05,38.16-6.51,25.97-2.93,52.82-3.18,79.78-1.58,20.72,1.22,41.5,3.53,61.99,6.56,35.78,5.28,70.67,12.72,102.8,20.29,5.92,1.4,11.75,2.81,17.47,4.2,4.16,1.01,4.93,6.6,1.19,8.67-6.34,3.51-13.02,7.36-19.97,11.51-32.15,19.17-70.07,44.65-106.63,72.28-16.51,12.48-32.75,25.4-48.05,38.38-33.29,28.22-62.18,56.73-79.95,81.61v.01h-.01c-36.51-26.95-66.76-39.83-84.37-50.79-17.85-11.11-22.7-20.26-7.87-40.11,6.99-9.36,18.36-21.11,34.81-36.57,6.77-6.36,14.4-13.36,22.94-21.08h.01c-.33-11.72-.71-22.06-1.17-31.15-.63-12.43-1.43-22.51-2.5-30.56-1.85-14-4.53-21.84-8.63-25.16-4.98-4.05-12.04-1.45-22.26,4.81-1.43.88-2.93,1.83-4.49,2.85-11.2,7.29-25.75,17.88-44.72,28.73-7.03,4.02-14.68,8.08-22.99,12.02" fill="none" stroke="url(#c)" stroke-miterlimit="10" stroke-width="20"/><path d="m613.2448,309.39c-1.54-.2401-3.11-.36-4.71-.36h-.02c-11.8101,0-22.08,6.56-27.3701,16.24-2.42,4.4301-3.8,9.51-3.8,14.92,0,4.39.91,8.57,2.55,12.36,4.78,11.07,15.79,18.81,28.6201,18.81.54,0,1.09-.01,1.62-.04,1-.05,1.97-.15,2.94-.29,6.65-.98,12.61-4.05,17.2-8.54,5.63-5.48,9.18-13.09,9.39-21.53.01-.25.01-.5099.01-.77,0-15.6-11.47-28.53-26.43-30.8Zm176.59,20.1899c-2.97-7.15-8.53-12.96-15.5-16.2599-4.03-1.9-8.54-2.97-13.3-2.97-7.08,0-13.6,2.36-18.83,6.33-7.5,5.69-12.34,14.7-12.34,24.84,0,.56.01,1.1201.04,1.67.61,11.49,7.45,21.34,17.2,26.22.57.29,1.15.56,1.75.81,3.74,1.59,7.86,2.47,12.18,2.47,4.27,0,8.35-.86,12.05-2.42,8.04-3.37,14.36-10.0099,17.31-18.2599,1.17-3.28,1.81-6.81,1.81-10.4901,0-4.23-.84-8.2599-2.37-11.94Zm-40.66-123.9399c-3.79-7.6-10.57-13.44-18.81-15.96-2.89-.88-5.95-1.35-9.12-1.35-11.24,0-21.09,5.95-26.58,14.88-2.91,4.7401-4.59,10.32-4.59,16.29,0,3.93.73,7.7,2.06,11.16,4.49,11.71,15.83,20.01,29.11,20.01,3.02,0,5.94-.43,8.71-1.23,12.97-3.77,22.46-15.75,22.46-29.94,0-4.98-1.17-9.68-3.24-13.86Zm-128.05-53.08c-4.96-8.85-14.1-15.03-24.75-15.86-.81-.06-1.63-.09-2.45-.09-12.79,0-23.78,7.7-28.58,18.72-1.67,3.8101-2.59,8.02-2.59,12.45,0,9.2,3.98,17.46,10.32,23.16,5.52,4.97,12.83,8,20.85,8h.2c14.27-.09,26.27-9.78,29.86-22.93.72-2.62,1.1-5.38,1.1-8.23,0-5.53-1.44-10.72-3.96-15.22Zm-156.51,2.04c11.54-2.24,20.8-10.84,24-22.01-22.07-3.91-27.15,2.31-24,22.01Zm20.55-46.96c-5.49-8.88-15.32-14.8-26.53-14.8-.39,0-.78.01-1.17.02-12.98.48-23.93,8.9-28.14,20.54-1.2,3.31-1.85,6.88-1.85,10.61,0,8.13,3.11,15.53,8.21,21.08,5.69,6.2,13.87,10.09,22.95,10.09,2.05,0,4.05-.2,5.98-.58,11.54-2.24,20.8-10.84,24-22.01.77-2.72,1.19-5.6,1.19-8.58,0-6.01-1.7-11.62-4.64-16.37Zm-84.29,74.02c-5.28-4.13-11.93-6.59-19.16-6.59-2.62,0-5.15.32-7.58.93-10.64,2.66-19.11,10.79-22.26,21.22-.87,2.86-1.33,5.89-1.33,9.02,0,6.13,1.77,11.85,4.83,16.67,5.34,8.42,14.62,14.11,25.24,14.48.37.0099.73.02,1.1.02,11.55,0,21.64-6.29,27.03-15.64,2.63-4.5699,4.14-9.8799,4.14-15.53,0-9.99-4.7-18.88-12.01-24.58Zm-107.21,89.63c-5.58-8.43-15.15-13.99-26.01-13.99-1.23,0-2.45.07-3.65.21-.52.06-1.03.13-1.54.22-14.75,2.47-25.98,15.3-25.98,30.74,0,17.21,13.95,31.17,31.17,31.17,8.43,0,16.08-3.35,21.68-8.78,5.85-5.67,9.4901-13.61,9.4901-22.39,0-6.35-1.9-12.26-5.16-17.18Zm103.93,76.35c-4.95-7.97-13.4-13.54-23.21-14.57-1.08-.11-2.17-.17-3.28-.17-10.76,0-20.24,5.45-25.85,13.7401-3.36,4.98-5.32,10.97-5.32,17.43,0,17.21,13.96,31.17,31.17,31.17,13.9,0,25.68-9.11,29.7-21.68.95-2.99,1.47-6.18,1.47-9.49,0-6.03-1.71-11.66-4.68-16.43Zm111.94,100.18c-5.04-4.91-11.75-8.12-19.19-8.72-.84-.07-1.68-.1-2.53-.1-5.07,0-9.86,1.21-14.08,3.36-10.14,5.15-17.08,15.67-17.08,27.81,0,17.22,13.95,31.17,31.16,31.17,12.46,0,23.21-7.31,28.2-17.88,1.91-4.03,2.97-8.53,2.97-13.29,0-8.76-3.62-16.69-9.45-22.35Zm143.52,75.42c-5.58-8.4-15.13-13.94-25.98-13.94-1.11,0-2.21.06-3.3.17-.07.01-.13.02-.2.03-11.14,1.24-20.51,8.36-24.9301,18.2-1.75,3.9-2.73,8.22-2.73,12.77,0,17.21,13.95,31.16,31.16,31.16,4.2599,0,8.31-.85,12-2.4,8.18-3.41,14.59-10.2,17.48-18.63,1.1-3.17,1.69-6.58,1.69-10.13,0-6.37-1.91-12.3-5.19-17.23Zm43.35,110c-4.74-2.9-10.3-4.58-16.27-4.58-3.88,0-7.59.71-11.01,2-11.78,4.45-20.16,15.83-20.16,29.17,0,17.2201,13.95,31.17,31.17,31.17,17.21,0,31.16-13.95,31.16-31.17,0-11.25-5.96-21.11-14.89-26.59Zm79.18-64.11c-5.5-8.85-15.3-14.74-26.49-14.74-2.89,0-5.69.39-8.34,1.1299-10.47,2.9-18.73,11.14-21.67,21.6-.75,2.69-1.15,5.52-1.15,8.44,0,7.97,3,15.26,7.93,20.77,5.7,6.38,14,10.4,23.23,10.4,17.22,0,31.17-13.96,31.17-31.17,0-6.03-1.71-11.66-4.6801-16.43Zm118.5-84.86c-5.02-3.45-11.11-5.48-17.66-5.48-6.35,0-12.26,1.9-17.18,5.16-6.1,4.03-10.69,10.15-12.77,17.34-.79,2.75-1.22,5.66-1.22,8.67,0,5.04,1.2,9.81,3.33,14.03,5.13,10.17,15.67,17.14,27.84,17.14,17.21,0,31.17-13.96,31.17-31.17,0-10.65-5.35-20.06-13.51-25.69Zm59.26-131.48c-1.58,0-3.14.12-4.65.35-.14.02-.27.04-.41.06-13.21,2.16-23.64,12.6299-25.72,25.87-.26,1.59-.39,3.23-.39,4.89,0,11.19,5.9,21,14.75,26.5,4.77,2.96,10.4,4.67,16.42,4.67,17.22,0,31.17-13.95,31.17-31.17,0-17.21-13.95-31.17-31.17-31.17Zm-17.24-103.45c-2.89,0-5.68.39-8.34,1.13-13.16,3.65-22.83,15.72-22.83,30.04,0,2.0699.2,4.1.59,6.06,2.82,14.32,15.44,25.11,30.58,25.11,1.92,0,3.8-.17,5.62-.51.98-.17,1.93-.4,2.87-.66,13.09-3.7,22.68-15.73,22.68-30,0-17.21-13.96-31.17-31.17-31.17Zm-46.42-120.69c-9.24,0-17.54,4.02-23.24,10.41-4.94,5.51-7.93,12.79-7.93,20.76,0,4.42.92,8.63,2.58,12.44,2.04,4.68,5.19,8.75,9.12,11.89,5.33,4.28,12.11,6.84,19.47,6.84,6.44,0,12.43-1.96,17.4-5.3,8.3-5.6,13.77-15.1,13.77-25.87,0-17.21-13.96-31.17-31.17-31.17Zm-132.63-90.19c-12.28,0-22.91,7.11-27.99,17.44-2.04,4.14-3.18,8.8-3.18,13.73,0,3.74.66,7.33,1.87,10.65,3.22,8.86,10.35,15.85,19.29,18.88,3.14,1.06,6.51,1.64,10.01,1.64,12.78,0,23.77-7.7,28.58-18.71,1.67-3.81,2.59-8.03,2.59-12.46,0-17.21-13.96-31.17-31.17-31.17ZM595.2448,1.33c-16.05,0-29.26,12.13-30.97,27.72-.13,1.13-.19,2.28-.19,3.44,0,4.26.85,8.32,2.4,12.01,4.7,11.26,15.81,19.16,28.76,19.16h.19c16.08-.1,29.27-12.36,30.83-28.05.1-1.03.15-2.07.15-3.12,0-17.21-13.95-31.16-31.17-31.16Zm-110.75,29.3c-.28-16.97-14.13-30.63-31.16-30.63-17.21,0-31.17,13.95-31.17,31.17,0,3.79.68,7.42,1.91,10.78.15.4.31.81.48,1.2,4.69,11.27,15.81,19.19,28.78,19.19.55,0,1.09-.01,1.63-.04,16.45-.85,29.54-14.47,29.54-31.13,0-.18,0-.36-.01-.54Zm-109.63,42.9c-1.38-1.85-2.96-3.53-4.71-5.03-5.45-4.67-12.54-7.49-20.27-7.49-17.22,0-31.17,13.95-31.17,31.17,0,6.68,2.11,12.88,5.69,17.95,5.64,8,14.95,13.22,25.48,13.22,2.5099,0,4.96-.3,7.3-.86,12.44-2.99,21.98-13.44,23.62-26.35.17-1.3.25-2.6201.25-3.96,0-7-2.3-13.45-6.19-18.65Zm-88.07,83.26c-5.05-3.52-11.19-5.59-17.82-5.59-17.21,0-31.16,13.95-31.16,31.17,0,15.49,11.3,28.34,26.11,30.75.31.05.63.1.94.14,1.34.18,2.72.27,4.11.27,15.67,0,28.63-11.55,30.84-26.6.22-1.49.33-3.01.33-4.56,0-10.59-5.28-19.94-13.35-25.58Z" fill="url(#d)"/></g></g><g><path d="m475.7722,495.8641l-5.5232,48.4739-.7149,6.4003s-.5848-1.9168-1.8842-5.4582c-7.9599-22.0601-42.561-106.9219-126.4157-181.7122-80.9956-72.2885-171.6081-94.1862-174.4346-94.836,3.9963,2.0794,164.3956,86.9087,246.1709,248.5751,22.0926,43.633,38.9871,125.4408,47.8891,175.6042.4224,2.1767.7797,4.2561,1.137,6.3029-.4547-.6173-.9421-1.2346-1.4295-1.8844-12.1509-15.9521-32.749-38.7271-65.1408-62.8015-77.4217-57.506-175.0519-89.9627-236.9113-145.6167-49.7735-44.8028-108.0917-136.6171-129.1772-212.7396C8.1871,199.9197,0,131.8548,0,131.8548c0,0,33.3663,21.118,92.1069,41.8787,50.4882,17.8691,124.2062,34.0161,200.1012,73.8154,98.085,51.463,126.8378,86.8113,152.017,126.513,13.1581,20.7607,21.1505,49.9036,26.0239,77.9418,2.6967,15.4647,4.4185,30.6373,5.5232,43.8604Z" fill="url(#e)"/><path d="m680.6492,385.7256c-2.8265,1.5594-48.409,27.291-94.4462,74.5953-51.8854,53.3147-64.3937,84.7643-84.6344,135.6425-5.7181,14.3602-8.9671,34.0486-10.7864,53.8345-1.0072,11.3064-1.2671,32.1319-.9423,31.6121-.9421,19.3634,7.9482,85.0751,26.0564,105.59,0,0-8.6097-3.1516-35.7381-9.7468l-48.7338,6.4978c33.8745-53.0041,30.1176-85.1543,30.5723-84.537-.3573-2.0468-.7147-4.1262-1.137-6.3029-8.902-50.1634-25.7964-131.9712-47.8891-175.6042-81.7753-161.6664-242.1746-246.4957-246.1709-248.5751,2.8265.6498,93.439,22.5475,174.4346,94.836,83.8547,74.7902,118.4558,159.6521,126.4157,181.7122,1.2994,3.5414,1.8842,5.4582,1.8842,5.4582l.7149-6.4003,5.5232-48.4739,10.8838-17.5117.9746,65.9856c.0325,2.9564.0976,5.9456.1301,8.902,0,0,1.4295-3.6713,4.6134-10.1041,6.4978-13.1906,20.3058-38.0124,44.0554-66.7653,46.0697-55.8167,140.4508-89.3454,144.2197-90.645Z" fill="url(#f)"/><path d="m826.3515,270.6488s-2.7615,24.0419-5.1334,43.2431c-6.8552,55.9789-14.8151,75.9921-31.092,108.5464-50.326,100.6515-130.1195,139.7036-137.6893,143.6674-50.3583,26.3162-59.8128,30.2798-99.547,55.1666-32.9441,20.5981-51.8203,42.3334-62.6393,60.1376-.3248.5197-.6173,1.0072-.9096,1.4944.2923-10.4289.8448-21.8001,1.8519-33.1065,1.8194-19.7858,5.0683-39.4743,10.7864-53.8345,20.2407-50.8782,32.749-82.3278,84.6344-135.6425,46.0372-47.3043,91.6196-73.0359,94.4462-74.5953-3.7689,1.2996-98.15,34.8283-144.2197,90.645-23.7496,28.7529-37.5575,53.5747-44.0554,66.7653-3.1839,6.4328-4.6134,10.1041-4.6134,10.1041-.0325-2.9564-.0976-5.9456-.1301-8.902l-.9746-65.9856c1.2671-7.3426,3.2489-16.2771,6.4328-26.1215,4.5811-14.4252,11.7936-30.8648,23.1323-47.2067,32.0994-46.2646,77.7469-67.1877,110.4959-76.9995,58.2531-17.4792,94.6086-21.0204,154.3238-39.6694,20.0783-6.2704,44.9001-17.7065,44.9001-17.7065Z" fill="url(#g)"/></g></svg>